<?xml version="1.0" encoding="utf-8" standalone="no"?>
<!DOCTYPE svg PUBLIC "-//W3C//DTD SVG 1.1//EN"
  "http://www.w3.org/Graphics/SVG/1.1/DTD/svg11.dtd">
<svg xmlns:xlink="http://www.w3.org/1999/xlink" width="460.8pt" height="345.6pt" viewBox="0 0 460.8 345.6" xmlns="http://www.w3.org/2000/svg" version="1.1">
 <metadata>
  <rdf:RDF xmlns:dc="http://purl.org/dc/elements/1.1/" xmlns:cc="http://creativecommons.org/ns#" xmlns:rdf="http://www.w3.org/1999/02/22-rdf-syntax-ns#">
   <cc:Work>
    <dc:type rdf:resource="http://purl.org/dc/dcmitype/StillImage"/>
    <dc:date>2023-03-11T17:44:11.366450</dc:date>
    <dc:format>image/svg+xml</dc:format>
    <dc:creator>
     <cc:Agent>
      <dc:title>Matplotlib v3.6.3, https://matplotlib.org/</dc:title>
     </cc:Agent>
    </dc:creator>
   </cc:Work>
  </rdf:RDF>
 </metadata>
 <defs>
  <style type="text/css">*{stroke-linejoin: round; stroke-linecap: butt}</style>
 </defs>
 <g id="figure_1">
  <g id="patch_1">
   <path d="M 0 345.6 
L 460.8 345.6 
L 460.8 0 
L 0 0 
z
" style="fill: #ffffff"/>
  </g>
  <g id="axes_1">
   <g id="patch_2">
    <path d="M 40.709863 311.057318 
L 457.79976 311.057318 
L 457.79976 3.00024 
L 40.709863 3.00024 
z
" style="fill: #ffffff"/>
   </g>
   <g id="matplotlib.axis_1">
    <g id="xtick_1">
     <g id="line2d_1">
      <defs>
       <path id="m5e50041984" d="M 0 0 
L 0 3.5 
" style="stroke: #000000; stroke-width: 0.8"/>
      </defs>
      <g>
       <use xlink:href="#m5e50041984" x="55.838468" y="311.057318" style="stroke: #000000; stroke-width: 0.8"/>
      </g>
     </g>
     <g id="text_1">
      <!-- $\mathdefault{0.0}$ -->
      <g transform="translate(48.83693 325.742244) scale(0.11 -0.11)">
       <defs>
        <path id="CMR17-30" d="M 2688 2038 
C 2688 2430 2682 3099 2413 3613 
C 2176 4063 1798 4224 1466 4224 
C 1158 4224 768 4082 525 3620 
C 269 3137 243 2539 243 2038 
C 243 1671 250 1112 448 623 
C 723 -39 1216 -128 1466 -128 
C 1760 -128 2208 -7 2470 604 
C 2662 1048 2688 1568 2688 2038 
z
M 1466 -26 
C 1056 -26 813 328 723 816 
C 653 1196 653 1749 653 2109 
C 653 2604 653 3015 736 3407 
C 858 3954 1216 4121 1466 4121 
C 1728 4121 2067 3947 2189 3420 
C 2272 3054 2278 2623 2278 2109 
C 2278 1691 2278 1176 2202 797 
C 2067 96 1690 -26 1466 -26 
z
" transform="scale(0.015625)"/>
        <path id="CMMI12-3a" d="M 1178 307 
C 1178 492 1024 620 870 620 
C 685 620 557 467 557 313 
C 557 128 710 0 864 0 
C 1050 0 1178 153 1178 307 
z
" transform="scale(0.015625)"/>
       </defs>
       <use xlink:href="#CMR17-30" transform="scale(0.996264)"/>
       <use xlink:href="#CMMI12-3a" transform="translate(45.690477 0) scale(0.996264)"/>
       <use xlink:href="#CMR17-30" transform="translate(72.787654 0) scale(0.996264)"/>
      </g>
     </g>
    </g>
    <g id="xtick_2">
     <g id="line2d_2">
      <g>
       <use xlink:href="#m5e50041984" x="132.439" y="311.057318" style="stroke: #000000; stroke-width: 0.8"/>
      </g>
     </g>
     <g id="text_2">
      <!-- $\mathdefault{0.2}$ -->
      <g transform="translate(125.437462 325.742244) scale(0.11 -0.11)">
       <defs>
        <path id="CMR17-32" d="M 2669 990 
L 2554 990 
C 2490 537 2438 460 2413 422 
C 2381 371 1920 371 1830 371 
L 602 371 
C 832 620 1280 1073 1824 1596 
C 2214 1966 2669 2400 2669 3033 
C 2669 3788 2067 4224 1395 4224 
C 691 4224 262 3603 262 3027 
C 262 2777 448 2745 525 2745 
C 589 2745 781 2783 781 3007 
C 781 3206 614 3264 525 3264 
C 486 3264 448 3257 422 3244 
C 544 3788 915 4057 1306 4057 
C 1862 4057 2227 3616 2227 3033 
C 2227 2477 1901 1998 1536 1583 
L 262 147 
L 262 0 
L 2515 0 
L 2669 990 
z
" transform="scale(0.015625)"/>
       </defs>
       <use xlink:href="#CMR17-30" transform="scale(0.996264)"/>
       <use xlink:href="#CMMI12-3a" transform="translate(45.690477 0) scale(0.996264)"/>
       <use xlink:href="#CMR17-32" transform="translate(72.787654 0) scale(0.996264)"/>
      </g>
     </g>
    </g>
    <g id="xtick_3">
     <g id="line2d_3">
      <g>
       <use xlink:href="#m5e50041984" x="209.039532" y="311.057318" style="stroke: #000000; stroke-width: 0.8"/>
      </g>
     </g>
     <g id="text_3">
      <!-- $\mathdefault{0.4}$ -->
      <g transform="translate(202.037994 325.742244) scale(0.11 -0.11)">
       <defs>
        <path id="CMR17-34" d="M 2150 4147 
C 2150 4281 2144 4288 2029 4288 
L 128 1254 
L 128 1088 
L 1779 1088 
L 1779 460 
C 1779 230 1766 166 1318 166 
L 1197 166 
L 1197 0 
C 1402 12 1747 12 1965 12 
C 2182 12 2528 12 2733 0 
L 2733 166 
L 2611 166 
C 2163 166 2150 230 2150 460 
L 2150 1088 
L 2803 1088 
L 2803 1254 
L 2150 1254 
L 2150 4147 
z
M 1798 3723 
L 1798 1254 
L 256 1254 
L 1798 3723 
z
" transform="scale(0.015625)"/>
       </defs>
       <use xlink:href="#CMR17-30" transform="scale(0.996264)"/>
       <use xlink:href="#CMMI12-3a" transform="translate(45.690477 0) scale(0.996264)"/>
       <use xlink:href="#CMR17-34" transform="translate(72.787654 0) scale(0.996264)"/>
      </g>
     </g>
    </g>
    <g id="xtick_4">
     <g id="line2d_4">
      <g>
       <use xlink:href="#m5e50041984" x="285.640064" y="311.057318" style="stroke: #000000; stroke-width: 0.8"/>
      </g>
     </g>
     <g id="text_4">
      <!-- $\mathdefault{0.6}$ -->
      <g transform="translate(278.638526 325.742244) scale(0.11 -0.11)">
       <defs>
        <path id="CMR17-36" d="M 678 2198 
C 678 3712 1395 4076 1811 4076 
C 1946 4076 2272 4049 2400 3782 
C 2298 3782 2106 3782 2106 3558 
C 2106 3385 2246 3328 2336 3328 
C 2394 3328 2566 3353 2566 3571 
C 2566 3987 2246 4224 1805 4224 
C 1043 4224 243 3411 243 2011 
C 243 257 966 -128 1478 -128 
C 2099 -128 2688 431 2688 1295 
C 2688 2101 2170 2688 1517 2688 
C 1126 2688 838 2430 678 1979 
L 678 2198 
z
M 1478 25 
C 691 25 691 1212 691 1450 
C 691 1914 909 2585 1504 2585 
C 1613 2585 1926 2585 2138 2140 
C 2253 1889 2253 1624 2253 1302 
C 2253 954 2253 696 2118 438 
C 1978 173 1773 25 1478 25 
z
" transform="scale(0.015625)"/>
       </defs>
       <use xlink:href="#CMR17-30" transform="scale(0.996264)"/>
       <use xlink:href="#CMMI12-3a" transform="translate(45.690477 0) scale(0.996264)"/>
       <use xlink:href="#CMR17-36" transform="translate(72.787654 0) scale(0.996264)"/>
      </g>
     </g>
    </g>
    <g id="xtick_5">
     <g id="line2d_5">
      <g>
       <use xlink:href="#m5e50041984" x="362.240596" y="311.057318" style="stroke: #000000; stroke-width: 0.8"/>
      </g>
     </g>
     <g id="text_5">
      <!-- $\mathdefault{0.8}$ -->
      <g transform="translate(355.239058 325.742244) scale(0.11 -0.11)">
       <defs>
        <path id="CMR17-38" d="M 1741 2289 
C 2144 2494 2554 2803 2554 3298 
C 2554 3884 1990 4224 1472 4224 
C 890 4224 378 3800 378 3215 
C 378 3054 416 2777 666 2533 
C 730 2469 998 2276 1171 2154 
C 883 2006 211 1652 211 945 
C 211 282 838 -128 1459 -128 
C 2144 -128 2720 366 2720 1022 
C 2720 1607 2330 1877 2074 2051 
L 1741 2289 
z
M 902 2855 
C 851 2887 595 3086 595 3388 
C 595 3781 998 4076 1459 4076 
C 1965 4076 2336 3716 2336 3298 
C 2336 2700 1670 2359 1638 2359 
C 1632 2359 1626 2359 1574 2398 
L 902 2855 
z
M 2080 1536 
C 2176 1466 2483 1253 2483 861 
C 2483 385 2010 25 1472 25 
C 890 25 448 443 448 951 
C 448 1459 838 1884 1280 2083 
L 2080 1536 
z
" transform="scale(0.015625)"/>
       </defs>
       <use xlink:href="#CMR17-30" transform="scale(0.996264)"/>
       <use xlink:href="#CMMI12-3a" transform="translate(45.690477 0) scale(0.996264)"/>
       <use xlink:href="#CMR17-38" transform="translate(72.787654 0) scale(0.996264)"/>
      </g>
     </g>
    </g>
    <g id="xtick_6">
     <g id="line2d_6">
      <g>
       <use xlink:href="#m5e50041984" x="438.841128" y="311.057318" style="stroke: #000000; stroke-width: 0.8"/>
      </g>
     </g>
     <g id="text_6">
      <!-- $\mathdefault{1.0}$ -->
      <g transform="translate(431.83959 325.742244) scale(0.11 -0.11)">
       <defs>
        <path id="CMR17-31" d="M 1702 4083 
C 1702 4217 1696 4224 1606 4224 
C 1357 3927 979 3833 621 3820 
C 602 3820 570 3820 563 3808 
C 557 3795 557 3782 557 3648 
C 755 3648 1088 3686 1344 3839 
L 1344 467 
C 1344 243 1331 166 781 166 
L 589 166 
L 589 0 
C 896 6 1216 12 1523 12 
C 1830 12 2150 6 2458 0 
L 2458 166 
L 2266 166 
C 1715 166 1702 236 1702 467 
L 1702 4083 
z
" transform="scale(0.015625)"/>
       </defs>
       <use xlink:href="#CMR17-31" transform="scale(0.996264)"/>
       <use xlink:href="#CMMI12-3a" transform="translate(45.690477 0) scale(0.996264)"/>
       <use xlink:href="#CMR17-30" transform="translate(72.787654 0) scale(0.996264)"/>
      </g>
     </g>
    </g>
    <g id="text_7">
     <!-- $\lambda$ -->
     <g transform="translate(246.058454 340.013466) scale(0.11 -0.11)">
      <defs>
       <path id="CMMI12-15" d="M 1978 3963 
C 1818 4416 1312 4416 1229 4416 
C 1190 4416 1120 4416 1120 4351 
C 1120 4300 1158 4294 1190 4287 
C 1286 4275 1363 4262 1466 4078 
C 1530 3957 2189 2055 2189 2042 
C 2189 2036 2182 2029 2131 1978 
L 467 305 
C 390 229 339 178 339 95 
C 339 6 416 -71 518 -71 
C 544 -71 614 -58 653 -20 
C 755 76 1670 1190 2253 1877 
C 2419 1380 2624 795 2822 261 
C 2854 165 2886 76 2976 -7 
C 3040 -64 3053 -64 3232 -64 
L 3354 -64 
C 3379 -64 3424 -64 3424 -13 
C 3424 12 3418 19 3392 44 
C 3334 114 3290 229 3264 305 
L 1978 3963 
z
" transform="scale(0.015625)"/>
      </defs>
      <use xlink:href="#CMMI12-15" transform="scale(0.996264)"/>
     </g>
    </g>
   </g>
   <g id="matplotlib.axis_2">
    <g id="ytick_1">
     <g id="line2d_7">
      <defs>
       <path id="m48ef515be9" d="M 0 0 
L -3.5 0 
" style="stroke: #000000; stroke-width: 0.8"/>
      </defs>
      <g>
       <use xlink:href="#m48ef515be9" x="40.709863" y="304.604261" style="stroke: #000000; stroke-width: 0.8"/>
      </g>
     </g>
     <g id="text_8">
      <!-- $\mathdefault{20}$ -->
      <g transform="translate(22.750928 308.446724) scale(0.11 -0.11)">
       <use xlink:href="#CMR17-32" transform="scale(0.996264)"/>
       <use xlink:href="#CMR17-30" transform="translate(45.690477 0) scale(0.996264)"/>
      </g>
     </g>
    </g>
    <g id="ytick_2">
     <g id="line2d_8">
      <g>
       <use xlink:href="#m48ef515be9" x="40.709863" y="268.654083" style="stroke: #000000; stroke-width: 0.8"/>
      </g>
     </g>
     <g id="text_9">
      <!-- $\mathdefault{30}$ -->
      <g transform="translate(22.750928 272.496546) scale(0.11 -0.11)">
       <defs>
        <path id="CMR17-33" d="M 1414 2176 
C 1984 2176 2234 1673 2234 1094 
C 2234 322 1824 25 1453 25 
C 1114 25 563 193 390 691 
C 422 678 454 678 486 678 
C 640 678 755 780 755 947 
C 755 1132 614 1216 486 1216 
C 378 1216 211 1164 211 927 
C 211 335 787 -128 1466 -128 
C 2176 -128 2720 432 2720 1087 
C 2720 1718 2208 2176 1600 2246 
C 2086 2347 2554 2776 2554 3353 
C 2554 3856 2048 4224 1472 4224 
C 890 4224 378 3862 378 3347 
C 378 3123 544 3084 627 3084 
C 762 3084 877 3167 877 3334 
C 877 3500 762 3584 627 3584 
C 602 3584 570 3584 544 3571 
C 730 3999 1235 4076 1459 4076 
C 1683 4076 2106 3966 2106 3347 
C 2106 3167 2080 2851 1862 2574 
C 1670 2329 1453 2316 1242 2297 
C 1210 2297 1062 2284 1037 2284 
C 992 2278 966 2272 966 2227 
C 966 2182 973 2176 1101 2176 
L 1414 2176 
z
" transform="scale(0.015625)"/>
       </defs>
       <use xlink:href="#CMR17-33" transform="scale(0.996264)"/>
       <use xlink:href="#CMR17-30" transform="translate(45.690477 0) scale(0.996264)"/>
      </g>
     </g>
    </g>
    <g id="ytick_3">
     <g id="line2d_9">
      <g>
       <use xlink:href="#m48ef515be9" x="40.709863" y="232.703904" style="stroke: #000000; stroke-width: 0.8"/>
      </g>
     </g>
     <g id="text_10">
      <!-- $\mathdefault{40}$ -->
      <g transform="translate(22.750928 236.546368) scale(0.11 -0.11)">
       <use xlink:href="#CMR17-34" transform="scale(0.996264)"/>
       <use xlink:href="#CMR17-30" transform="translate(45.690477 0) scale(0.996264)"/>
      </g>
     </g>
    </g>
    <g id="ytick_4">
     <g id="line2d_10">
      <g>
       <use xlink:href="#m48ef515be9" x="40.709863" y="196.753726" style="stroke: #000000; stroke-width: 0.8"/>
      </g>
     </g>
     <g id="text_11">
      <!-- $\mathdefault{50}$ -->
      <g transform="translate(22.750928 200.596189) scale(0.11 -0.11)">
       <defs>
        <path id="CMR17-35" d="M 730 3750 
C 794 3724 1056 3641 1325 3641 
C 1920 3641 2246 3961 2432 4140 
C 2432 4191 2432 4224 2394 4224 
C 2387 4224 2374 4224 2323 4198 
C 2099 4102 1837 4032 1517 4032 
C 1325 4032 1037 4055 723 4191 
C 653 4224 640 4224 634 4224 
C 602 4224 595 4217 595 4090 
L 595 2231 
C 595 2113 595 2080 659 2080 
C 691 2080 704 2093 736 2139 
C 941 2435 1222 2560 1542 2560 
C 1766 2560 2246 2415 2246 1293 
C 2246 1087 2246 716 2054 422 
C 1894 159 1645 25 1370 25 
C 947 25 518 319 403 812 
C 429 806 480 793 506 793 
C 589 793 749 838 749 1036 
C 749 1209 627 1280 506 1280 
C 358 1280 262 1190 262 1011 
C 262 454 704 -128 1382 -128 
C 2042 -128 2669 441 2669 1267 
C 2669 2054 2170 2662 1549 2662 
C 1222 2662 947 2540 730 2304 
L 730 3750 
z
" transform="scale(0.015625)"/>
       </defs>
       <use xlink:href="#CMR17-35" transform="scale(0.996264)"/>
       <use xlink:href="#CMR17-30" transform="translate(45.690477 0) scale(0.996264)"/>
      </g>
     </g>
    </g>
    <g id="ytick_5">
     <g id="line2d_11">
      <g>
       <use xlink:href="#m48ef515be9" x="40.709863" y="160.803548" style="stroke: #000000; stroke-width: 0.8"/>
      </g>
     </g>
     <g id="text_12">
      <!-- $\mathdefault{60}$ -->
      <g transform="translate(22.750928 164.646011) scale(0.11 -0.11)">
       <use xlink:href="#CMR17-36" transform="scale(0.996264)"/>
       <use xlink:href="#CMR17-30" transform="translate(45.690477 0) scale(0.996264)"/>
      </g>
     </g>
    </g>
    <g id="ytick_6">
     <g id="line2d_12">
      <g>
       <use xlink:href="#m48ef515be9" x="40.709863" y="124.853369" style="stroke: #000000; stroke-width: 0.8"/>
      </g>
     </g>
     <g id="text_13">
      <!-- $\mathdefault{70}$ -->
      <g transform="translate(22.750928 128.695833) scale(0.11 -0.11)">
       <defs>
        <path id="CMR17-37" d="M 2886 3955 
L 2886 4096 
L 1382 4096 
C 634 4096 621 4166 595 4288 
L 480 4288 
L 294 3104 
L 410 3104 
C 429 3226 474 3552 550 3673 
C 589 3724 1062 3724 1171 3724 
L 2579 3724 
L 1869 2670 
C 1395 1961 1069 1003 1069 166 
C 1069 89 1069 -128 1299 -128 
C 1530 -128 1530 89 1530 172 
L 1530 466 
C 1530 1514 1709 2204 2003 2644 
L 2886 3955 
z
" transform="scale(0.015625)"/>
       </defs>
       <use xlink:href="#CMR17-37" transform="scale(0.996264)"/>
       <use xlink:href="#CMR17-30" transform="translate(45.690477 0) scale(0.996264)"/>
      </g>
     </g>
    </g>
    <g id="ytick_7">
     <g id="line2d_13">
      <g>
       <use xlink:href="#m48ef515be9" x="40.709863" y="88.903191" style="stroke: #000000; stroke-width: 0.8"/>
      </g>
     </g>
     <g id="text_14">
      <!-- $\mathdefault{80}$ -->
      <g transform="translate(22.750928 92.745654) scale(0.11 -0.11)">
       <use xlink:href="#CMR17-38" transform="scale(0.996264)"/>
       <use xlink:href="#CMR17-30" transform="translate(45.690477 0) scale(0.996264)"/>
      </g>
     </g>
    </g>
    <g id="ytick_8">
     <g id="line2d_14">
      <g>
       <use xlink:href="#m48ef515be9" x="40.709863" y="52.953013" style="stroke: #000000; stroke-width: 0.8"/>
      </g>
     </g>
     <g id="text_15">
      <!-- $\mathdefault{90}$ -->
      <g transform="translate(22.750928 56.795476) scale(0.11 -0.11)">
       <defs>
        <path id="CMR17-39" d="M 2253 1871 
C 2253 448 1670 25 1190 25 
C 1043 25 685 43 538 281 
C 704 256 826 345 826 505 
C 826 678 685 736 595 736 
C 538 736 365 710 365 492 
C 365 68 742 -128 1203 -128 
C 1939 -128 2688 665 2688 2090 
C 2688 3857 1971 4224 1485 4224 
C 851 4224 243 3664 243 2800 
C 243 2000 762 1408 1414 1408 
C 1952 1408 2189 1910 2253 2122 
L 2253 1871 
z
M 1427 1510 
C 1254 1510 1011 1542 813 1929 
C 678 2181 678 2477 678 2793 
C 678 3174 678 3438 858 3722 
C 947 3857 1114 4076 1485 4076 
C 2240 4076 2240 2909 2240 2651 
C 2240 2193 2035 1510 1427 1510 
z
" transform="scale(0.015625)"/>
       </defs>
       <use xlink:href="#CMR17-39" transform="scale(0.996264)"/>
       <use xlink:href="#CMR17-30" transform="translate(45.690477 0) scale(0.996264)"/>
      </g>
     </g>
    </g>
    <g id="ytick_9">
     <g id="line2d_15">
      <g>
       <use xlink:href="#m48ef515be9" x="40.709863" y="17.002834" style="stroke: #000000; stroke-width: 0.8"/>
      </g>
     </g>
     <g id="text_16">
      <!-- $\mathdefault{100}$ -->
      <g transform="translate(17.271461 20.845298) scale(0.11 -0.11)">
       <use xlink:href="#CMR17-31" transform="scale(0.996264)"/>
       <use xlink:href="#CMR17-30" transform="translate(45.690477 0) scale(0.996264)"/>
       <use xlink:href="#CMR17-30" transform="translate(91.380954 0) scale(0.996264)"/>
      </g>
     </g>
    </g>
    <g id="text_17">
     <!-- Validity rate (\%) -->
     <g transform="translate(10.685167 193.242396) rotate(-90) scale(0.11 -0.11)">
      <defs>
       <path id="LinBiolinumT-56" d="M 2074 848 
L 2061 848 
C 1221 2799 901 3938 838 4160 
C 732 4148 585 4141 486 4141 
C 384 4141 210 4148 102 4160 
C 422 3511 1267 1341 1856 -64 
L 2035 -64 
C 2650 1361 3277 2741 3923 4160 
C 3846 4147 3725 4141 3667 4141 
C 3597 4141 3452 4147 3379 4160 
C 3159 3334 2533 1914 2074 848 
z
" transform="scale(0.015625)"/>
       <path id="LinBiolinumT-61" d="M 1984 1443 
L 1958 679 
C 1958 596 1920 551 1869 512 
C 1690 377 1472 262 1280 262 
C 992 262 806 454 806 653 
C 806 942 941 1160 1440 1295 
L 1984 1443 
z
M 1984 307 
C 2058 57 2249 -64 2483 -64 
C 2644 -64 2842 -26 2993 134 
L 2945 293 
C 2875 268 2821 259 2772 259 
C 2708 259 2624 271 2584 307 
C 2519 366 2478 522 2478 807 
C 2478 994 2496 1706 2496 1777 
C 2496 2643 1926 2816 1440 2816 
C 954 2816 659 2579 499 2444 
L 480 2418 
L 589 1988 
L 672 1982 
C 851 2271 1069 2527 1376 2527 
C 1606 2527 1990 2495 1990 1770 
C 1990 1725 1965 1700 1946 1693 
L 1350 1558 
C 698 1411 288 1064 288 628 
C 288 153 614 -64 1088 -64 
C 1440 -64 1619 19 1958 307 
L 1984 307 
z
" transform="scale(0.015625)"/>
       <path id="LinBiolinumT-6c" d="M 576 1297 
C 576 821 567 361 518 19 
L 531 0 
C 608 12 755 19 832 19 
C 909 19 1056 12 1133 0 
L 1146 19 
C 1096 383 1088 816 1088 1297 
L 1088 3214 
C 1088 3693 1115 4012 1146 4415 
C 1146 4460 1128 4480 1088 4480 
C 928 4415 791 4371 531 4352 
L 518 4332 
C 568 4059 576 3585 576 3099 
L 576 1297 
z
" transform="scale(0.015625)"/>
       <path id="LinBiolinumT-69" d="M 512 3833 
C 512 3660 666 3507 838 3507 
C 1011 3507 1165 3660 1165 3833 
C 1165 4006 1011 4160 838 4160 
C 666 4160 512 4006 512 3833 
z
M 576 1502 
L 576 1155 
C 576 681 564 359 518 18 
L 531 0 
C 608 12 755 18 832 18 
C 909 18 1056 12 1133 0 
L 1146 18 
C 1100 377 1088 675 1088 1155 
L 1088 1603 
C 1088 2076 1105 2303 1146 2688 
C 1146 2745 1138 2752 1088 2752 
C 942 2737 667 2734 531 2745 
L 518 2726 
C 558 2456 576 1975 576 1502 
z
" transform="scale(0.015625)"/>
       <path id="LinBiolinumT-64" d="M 2310 724 
C 2077 426 1783 268 1523 268 
C 1178 268 883 615 883 1417 
C 883 2380 1393 2559 1702 2559 
C 2003 2559 2157 2431 2310 2187 
L 2310 724 
z
M 2310 371 
L 2323 371 
L 2355 0 
C 2355 6 2374 0 2413 0 
C 2497 11 2541 19 2634 19 
C 2714 19 2835 12 2918 0 
L 2931 19 
C 2880 292 2822 764 2822 1241 
L 2822 3207 
C 2822 3683 2848 4018 2880 4415 
C 2880 4460 2862 4480 2822 4480 
C 2662 4415 2525 4370 2266 4351 
L 2253 4332 
C 2303 4057 2310 3580 2310 3092 
L 2310 2675 
C 2163 2758 1901 2816 1773 2816 
C 940 2816 326 2241 326 1375 
C 326 576 794 -64 1485 -64 
C 1792 -64 2080 74 2310 371 
z
" transform="scale(0.015625)"/>
       <path id="LinBiolinumT-74" d="M 608 2752 
C 477 2752 342 2754 262 2764 
C 219 2659 184 2598 122 2502 
L 154 2457 
C 264 2465 462 2469 608 2470 
L 608 1586 
C 608 1199 589 735 589 541 
C 589 125 858 -64 1152 -64 
C 1421 -64 1626 -3 1894 162 
L 1816 320 
C 1619 252 1472 245 1312 271 
C 1160 295 1101 450 1101 799 
C 1101 993 1120 1270 1120 1657 
L 1120 2470 
L 1363 2470 
C 1517 2470 1740 2465 1824 2457 
C 1843 2559 1862 2625 1901 2719 
L 1869 2764 
C 1754 2759 1568 2752 1421 2752 
L 1120 2752 
C 1120 3230 1124 3315 1152 3686 
C 1152 3732 1134 3750 1094 3750 
C 934 3686 855 3618 646 3590 
L 634 3571 
C 621 3348 608 3123 608 2752 
L 608 2752 
z
" transform="scale(0.015625)"/>
       <path id="LinBiolinumT-79" d="M 179 2752 
C 434 2182 1194 529 1421 -82 
C 1216 -560 955 -1053 666 -1536 
C 730 -1517 826 -1504 890 -1504 
C 954 -1504 1139 -1517 1203 -1536 
C 1446 -735 2848 2322 3059 2752 
C 2995 2732 2848 2732 2784 2732 
C 2720 2732 2598 2732 2534 2752 
C 2304 2027 2004 1208 1695 544 
L 1682 544 
C 1367 1307 1065 2019 826 2751 
C 742 2732 602 2732 512 2732 
C 429 2732 269 2732 179 2751 
L 179 2752 
z
" transform="scale(0.015625)"/>
       <path id="LinBiolinumT-72" d="M 1069 2145 
L 1069 2726 
C 1069 2776 1061 2790 1030 2790 
C 887 2762 658 2757 512 2771 
L 499 2751 
C 544 2475 557 1992 557 1514 
L 557 1164 
C 557 687 549 361 499 19 
L 512 0 
C 589 12 736 19 813 19 
C 890 19 1037 12 1114 0 
L 1126 19 
C 1079 381 1069 681 1069 1164 
L 1069 1495 
C 1069 1763 1149 1915 1286 2125 
C 1380 2267 1523 2348 1645 2348 
C 1773 2348 1894 2336 1978 2259 
L 2029 2272 
L 2157 2745 
L 2131 2771 
C 2022 2803 2016 2816 1901 2816 
C 1555 2816 1370 2617 1088 2132 
L 1069 2145 
z
" transform="scale(0.015625)"/>
       <path id="LinBiolinumT-65" d="M 800 1728 
C 909 2414 1329 2559 1530 2559 
C 1783 2559 2067 2315 2067 1820 
C 2067 1761 2042 1728 1978 1728 
L 800 1728 
z
M 2509 659 
C 2285 420 1984 313 1632 313 
C 1413 313 1111 395 934 672 
C 822 848 781 1105 781 1472 
L 2522 1472 
C 2592 1472 2637 1510 2637 1580 
C 2637 2130 2374 2816 1530 2816 
C 870 2816 218 2276 218 1320 
C 218 963 292 610 506 357 
C 726 93 1092 -64 1523 -64 
C 1984 -64 2394 172 2637 502 
L 2509 659 
z
" transform="scale(0.015625)"/>
       <path id="LinBiolinumT-28" d="M 282 1612 
C 282 1324 307 -154 1638 -1306 
L 1786 -1197 
C 1574 -954 813 -71 813 1612 
C 813 3296 1581 4179 1786 4409 
L 1638 4525 
C 877 3872 282 2803 282 1612 
z
" transform="scale(0.015625)"/>
       <path id="LinBiolinumT-25" d="M 2957 582 
C 2957 974 3245 1536 3578 1536 
C 3674 1536 3885 1479 3885 1125 
C 3885 746 3642 134 3264 134 
C 3136 134 2957 229 2957 582 
z
M 2598 683 
C 2598 323 2803 -64 3219 -64 
C 3789 -64 4090 677 4090 1131 
C 4090 1625 3776 1747 3501 1747 
C 2995 1747 2598 1188 2598 683 
z
M 2490 3584 
C 2368 3584 2131 3577 1760 3731 
C 1690 3814 1491 3904 1299 3904 
C 806 3904 403 3359 403 2841 
C 403 2499 595 2105 1018 2105 
C 1594 2105 1894 2872 1894 3302 
C 1894 3366 1888 3423 1875 3468 
C 2003 3391 2259 3327 2419 3327 
C 2624 3327 2886 3353 3149 3455 
L 698 38 
L 928 -64 
L 3731 3820 
L 3514 3929 
C 3302 3649 2778 3584 2490 3584 
z
M 755 2746 
C 755 3138 1043 3692 1376 3692 
C 1498 3692 1683 3627 1683 3296 
C 1683 2904 1440 2304 1062 2304 
C 941 2304 755 2392 755 2746 
z
" transform="scale(0.015625)"/>
       <path id="LinBiolinumT-29" d="M 1638 1612 
C 1638 1900 1613 3379 282 4531 
L 134 4422 
C 346 4179 1107 3296 1107 1612 
C 1107 -71 339 -954 134 -1185 
L 282 -1300 
C 1043 -647 1638 422 1638 1612 
z
" transform="scale(0.015625)"/>
      </defs>
      <use xlink:href="#LinBiolinumT-56" transform="scale(0.996264)"/>
      <use xlink:href="#LinBiolinumT-61" transform="translate(56.886575 0) scale(0.996264)"/>
      <use xlink:href="#LinBiolinumT-6c" transform="translate(104.806864 0) scale(0.996264)"/>
      <use xlink:href="#LinBiolinumT-69" transform="translate(129.912699 0) scale(0.996264)"/>
      <use xlink:href="#LinBiolinumT-64" transform="translate(155.815579 0) scale(0.996264)"/>
      <use xlink:href="#LinBiolinumT-69" transform="translate(208.617541 0) scale(0.996264)"/>
      <use xlink:href="#LinBiolinumT-74" transform="translate(234.52042 0) scale(0.996264)"/>
      <use xlink:href="#LinBiolinumT-79" transform="translate(268.393412 0) scale(0.996264)"/>
      <use xlink:href="#LinBiolinumT-72" transform="translate(343.710916 0) scale(0.996264)"/>
      <use xlink:href="#LinBiolinumT-61" transform="translate(379.078243 0) scale(0.996264)"/>
      <use xlink:href="#LinBiolinumT-74" transform="translate(426.998533 0) scale(0.996264)"/>
      <use xlink:href="#LinBiolinumT-65" transform="translate(460.871524 0) scale(0.996264)"/>
      <use xlink:href="#LinBiolinumT-28" transform="translate(530.908887 0) scale(0.996264)"/>
      <use xlink:href="#LinBiolinumT-25" transform="translate(560.796823 0) scale(0.996264)"/>
      <use xlink:href="#LinBiolinumT-29" transform="translate(628.542806 0) scale(0.996264)"/>
     </g>
    </g>
   </g>
   <g id="LineCollection_1">
    <path d="M 59.668495 18.08134 
L 59.668495 17.362336 
" clip-path="url(#p2a5300ca05)" style="fill: none; stroke: #006ba4; stroke-width: 1.5"/>
    <path d="M 74.988601 17.721838 
L 74.988601 17.002834 
" clip-path="url(#p2a5300ca05)" style="fill: none; stroke: #006ba4; stroke-width: 1.5"/>
    <path d="M 94.138734 18.800343 
L 94.138734 17.362336 
" clip-path="url(#p2a5300ca05)" style="fill: none; stroke: #006ba4; stroke-width: 1.5"/>
    <path d="M 132.439 38.572941 
L 132.439 17.721838 
" clip-path="url(#p2a5300ca05)" style="fill: none; stroke: #006ba4; stroke-width: 1.5"/>
    <path d="M 247.339798 17.002834 
L 247.339798 17.002834 
" clip-path="url(#p2a5300ca05)" style="fill: none; stroke: #006ba4; stroke-width: 1.5"/>
    <path d="M 438.841128 17.002834 
L 438.841128 17.002834 
" clip-path="url(#p2a5300ca05)" style="fill: none; stroke: #006ba4; stroke-width: 1.5"/>
   </g>
   <g id="LineCollection_2">
    <path d="M 59.668495 100.407248 
L 59.668495 93.936216 
" clip-path="url(#p2a5300ca05)" style="fill: none; stroke: #ff800e; stroke-width: 1.5"/>
    <path d="M 74.988601 97.890736 
L 74.988601 90.7007 
" clip-path="url(#p2a5300ca05)" style="fill: none; stroke: #ff800e; stroke-width: 1.5"/>
    <path d="M 94.138734 81.713155 
L 94.138734 69.490095 
" clip-path="url(#p2a5300ca05)" style="fill: none; stroke: #ff800e; stroke-width: 1.5"/>
    <path d="M 132.439 88.903191 
L 132.439 83.151163 
" clip-path="url(#p2a5300ca05)" style="fill: none; stroke: #ff800e; stroke-width: 1.5"/>
    <path d="M 247.339798 68.411589 
L 247.339798 66.254579 
" clip-path="url(#p2a5300ca05)" style="fill: none; stroke: #ff800e; stroke-width: 1.5"/>
    <path d="M 438.841128 60.50255 
L 438.841128 59.064543 
" clip-path="url(#p2a5300ca05)" style="fill: none; stroke: #ff800e; stroke-width: 1.5"/>
   </g>
   <g id="LineCollection_3">
    <path d="M 59.668495 297.054723 
L 59.668495 284.112659 
" clip-path="url(#p2a5300ca05)" style="fill: none; stroke: #ababab; stroke-width: 1.5"/>
    <path d="M 74.988601 291.662197 
L 74.988601 278.720132 
" clip-path="url(#p2a5300ca05)" style="fill: none; stroke: #ababab; stroke-width: 1.5"/>
    <path d="M 94.138734 254.274011 
L 94.138734 224.075861 
" clip-path="url(#p2a5300ca05)" style="fill: none; stroke: #ababab; stroke-width: 1.5"/>
    <path d="M 132.439 268.294581 
L 132.439 253.914509 
" clip-path="url(#p2a5300ca05)" style="fill: none; stroke: #ababab; stroke-width: 1.5"/>
    <path d="M 247.339798 237.017926 
L 247.339798 221.199847 
" clip-path="url(#p2a5300ca05)" style="fill: none; stroke: #ababab; stroke-width: 1.5"/>
    <path d="M 438.841128 206.819776 
L 438.841128 194.596715 
" clip-path="url(#p2a5300ca05)" style="fill: none; stroke: #ababab; stroke-width: 1.5"/>
   </g>
   <g id="LineCollection_4">
    <path d="M 59.668495 169.791092 
L 59.668495 165.477071 
" clip-path="url(#p2a5300ca05)" style="fill: none; stroke: #595959; stroke-width: 1.5"/>
    <path d="M 74.988601 161.522551 
L 74.988601 155.051519 
" clip-path="url(#p2a5300ca05)" style="fill: none; stroke: #595959; stroke-width: 1.5"/>
    <path d="M 94.138734 141.749953 
L 94.138734 124.493868 
" clip-path="url(#p2a5300ca05)" style="fill: none; stroke: #595959; stroke-width: 1.5"/>
    <path d="M 132.439 146.063975 
L 132.439 141.749953 
" clip-path="url(#p2a5300ca05)" style="fill: none; stroke: #595959; stroke-width: 1.5"/>
    <path d="M 247.339798 127.369882 
L 247.339798 120.179846 
" clip-path="url(#p2a5300ca05)" style="fill: none; stroke: #595959; stroke-width: 1.5"/>
    <path d="M 438.841128 113.708814 
L 438.841128 108.675789 
" clip-path="url(#p2a5300ca05)" style="fill: none; stroke: #595959; stroke-width: 1.5"/>
   </g>
   <g id="line2d_16">
    <path d="M 59.668495 17.721838 
L 74.988601 17.362336 
L 94.138734 18.08134 
L 132.439 28.14739 
L 247.339798 17.002834 
L 438.841128 17.002834 
" clip-path="url(#p2a5300ca05)" style="fill: none; stroke: #006ba4; stroke-width: 1.5; stroke-linecap: square"/>
   </g>
   <g id="line2d_17">
    <path d="M 59.668495 97.171732 
L 74.988601 94.295718 
L 94.138734 75.601625 
L 132.439 86.027177 
L 247.339798 67.333084 
L 438.841128 59.783547 
" clip-path="url(#p2a5300ca05)" style="fill: none; stroke: #ff800e; stroke-width: 1.5; stroke-linecap: square"/>
   </g>
   <g id="line2d_18">
    <path d="M 59.668495 290.583691 
L 74.988601 285.191165 
L 94.138734 239.174936 
L 132.439 261.104545 
L 247.339798 229.108886 
L 438.841128 200.708246 
" clip-path="url(#p2a5300ca05)" style="fill: none; stroke: #ababab; stroke-width: 1.5; stroke-linecap: square"/>
   </g>
   <g id="line2d_19">
    <path d="M 59.668495 167.634082 
L 74.988601 158.287035 
L 94.138734 133.12191 
L 132.439 143.906964 
L 247.339798 123.774864 
L 438.841128 111.192302 
" clip-path="url(#p2a5300ca05)" style="fill: none; stroke: #595959; stroke-width: 1.5; stroke-linecap: square"/>
   </g>
   <g id="patch_3">
    <path d="M 40.709863 311.057318 
L 40.709863 3.00024 
" style="fill: none; stroke: #000000; stroke-width: 0.8; stroke-linejoin: miter; stroke-linecap: square"/>
   </g>
   <g id="patch_4">
    <path d="M 457.79976 311.057318 
L 457.79976 3.00024 
" style="fill: none; stroke: #000000; stroke-width: 0.8; stroke-linejoin: miter; stroke-linecap: square"/>
   </g>
   <g id="patch_5">
    <path d="M 40.709863 311.057318 
L 457.79976 311.057318 
" style="fill: none; stroke: #000000; stroke-width: 0.8; stroke-linejoin: miter; stroke-linecap: square"/>
   </g>
   <g id="patch_6">
    <path d="M 40.709863 3.00024 
L 457.79976 3.00024 
" style="fill: none; stroke: #000000; stroke-width: 0.8; stroke-linejoin: miter; stroke-linecap: square"/>
   </g>
   <g id="legend_1">
    <g id="patch_7">
     <path d="M 312.11639 305.557318 
L 450.09976 305.557318 
Q 452.29976 305.557318 452.29976 303.357318 
L 452.29976 241.31214 
Q 452.29976 239.11214 450.09976 239.11214 
L 312.11639 239.11214 
Q 309.91639 239.11214 309.91639 241.31214 
L 309.91639 303.357318 
Q 309.91639 305.557318 312.11639 305.557318 
z
" style="fill: #ffffff; opacity: 0.8; stroke: #cccccc; stroke-linejoin: miter"/>
    </g>
    <g id="line2d_20">
     <path d="M 314.31639 247.36214 
L 325.31639 247.36214 
L 336.31639 247.36214 
" style="fill: none; stroke: #006ba4; stroke-width: 1.5; stroke-linecap: square"/>
    </g>
    <g id="text_18">
     <!-- CakeOnSea -->
     <g transform="translate(345.11639 251.21214) scale(0.11 -0.11)">
      <defs>
       <path id="LinBiolinumT-43" d="M 2432 4224 
C 1350 4224 333 3287 333 2022 
C 333 911 966 -64 2342 -64 
C 2934 -64 3491 120 3918 638 
C 3914 712 3901 853 3878 911 
L 3834 930 
C 3379 429 2995 262 2400 262 
C 1588 262 992 1142 992 2144 
C 992 3448 1818 3923 2342 3923 
C 2918 3923 3386 3692 3648 3165 
L 3725 3171 
C 3748 3499 3770 3612 3840 3884 
L 3827 3904 
C 3827 3904 3213 4224 2432 4224 
L 2432 4224 
z
" transform="scale(0.015625)"/>
       <path id="LinBiolinumT-6b" d="M 576 1280 
C 576 811 567 357 518 18 
L 531 0 
C 608 12 755 18 832 18 
C 909 18 1056 12 1133 0 
L 1146 18 
C 1096 378 1088 806 1088 1280 
L 1088 1344 
C 1140 1342 1295 1323 1350 1274 
C 1766 845 1920 618 2355 0 
C 2452 11 2669 18 2778 18 
C 2885 18 3104 11 3162 0 
L 3174 18 
C 2698 514 2358 793 1747 1523 
C 1999 1783 2624 2384 3040 2732 
L 3027 2752 
C 2906 2732 2554 2732 2381 2732 
C 2104 2337 1623 1824 1370 1631 
C 1288 1568 1171 1543 1088 1537 
L 1088 3193 
C 1088 3680 1115 4004 1146 4415 
C 1146 4460 1128 4480 1088 4480 
C 928 4415 791 4369 531 4350 
L 518 4330 
C 568 4053 576 3570 576 3076 
L 576 1280 
z
" transform="scale(0.015625)"/>
       <path id="LinBiolinumT-4f" d="M 2272 3942 
C 3174 3942 3750 3325 3750 1990 
C 3750 840 3219 217 2490 217 
C 1722 217 992 866 992 2099 
C 992 3447 1658 3942 2272 3942 
z
M 4410 2112 
C 4410 3383 3507 4224 2355 4224 
C 1210 4224 333 3248 333 1990 
C 333 724 1261 -64 2362 -64 
C 3584 -64 4410 827 4410 2112 
z
" transform="scale(0.015625)"/>
       <path id="LinBiolinumT-6e" d="M 2944 1165 
C 2944 1368 2957 1604 2957 1808 
C 2957 2470 2739 2816 2163 2816 
C 1920 2816 1466 2719 1056 2240 
L 1043 2260 
L 1043 2726 
C 1042 2776 1036 2790 1005 2790 
C 861 2762 632 2757 486 2771 
L 474 2751 
C 518 2475 531 1992 531 1515 
L 531 1165 
C 531 687 525 362 474 19 
L 486 0 
C 563 12 710 19 787 19 
C 864 19 1011 12 1088 0 
L 1101 19 
C 1050 381 1043 681 1043 1165 
L 1043 1909 
C 1370 2291 1741 2431 1971 2431 
C 2298 2431 2432 2304 2432 1788 
L 2432 1165 
C 2432 687 2420 361 2374 19 
L 2387 0 
C 2464 12 2611 19 2688 19 
C 2765 19 2912 12 2989 0 
L 3002 19 
C 2952 381 2944 681 2944 1165 
z
" transform="scale(0.015625)"/>
       <path id="LinBiolinumT-53" d="M 1549 217 
C 1190 217 730 532 531 911 
L 467 904 
C 442 673 371 435 320 243 
L 333 224 
C 333 224 749 -64 1498 -64 
C 2285 -64 2893 416 2893 1161 
C 2893 1906 2266 2252 1747 2446 
C 1421 2568 966 2754 966 3287 
C 966 3518 1094 3775 1261 3865 
C 1370 3923 1504 3942 1651 3942 
C 2003 3942 2349 3666 2522 3268 
L 2586 3274 
C 2611 3505 2675 3723 2733 3916 
L 2720 3935 
C 2720 3935 2451 4224 1702 4224 
C 1530 4224 1338 4191 1152 4115 
C 774 3955 448 3582 448 3113 
C 448 2439 1018 2124 1549 1900 
C 1965 1726 2298 1514 2298 968 
C 2298 487 1926 217 1549 217 
z
" transform="scale(0.015625)"/>
      </defs>
      <use xlink:href="#LinBiolinumT-43" transform="scale(0.996264)"/>
      <use xlink:href="#LinBiolinumT-61" transform="translate(67.44707 0) scale(0.996264)"/>
      <use xlink:href="#LinBiolinumT-6b" transform="translate(115.36736 0) scale(0.996264)"/>
      <use xlink:href="#LinBiolinumT-65" transform="translate(165.479458 0) scale(0.996264)"/>
      <use xlink:href="#LinBiolinumT-4f" transform="translate(210.610221 0) scale(0.996264)"/>
      <use xlink:href="#LinBiolinumT-6e" transform="translate(284.43339 0) scale(0.996264)"/>
      <use xlink:href="#LinBiolinumT-53" transform="translate(338.131968 0) scale(0.996264)"/>
      <use xlink:href="#LinBiolinumT-65" transform="translate(388.542873 0) scale(0.996264)"/>
      <use xlink:href="#LinBiolinumT-61" transform="translate(433.673635 0) scale(0.996264)"/>
     </g>
    </g>
    <g id="line2d_21">
     <path d="M 314.31639 263.148435 
L 325.31639 263.148435 
L 336.31639 263.148435 
" style="fill: none; stroke: #ff800e; stroke-width: 1.5; stroke-linecap: square"/>
    </g>
    <g id="text_19">
     <!-- ForestCover -->
     <g transform="translate(345.11639 266.998435) scale(0.11 -0.11)">
      <defs>
       <path id="LinBiolinumT-46" d="M 2605 4160 
L 941 4160 
C 723 4160 614 4179 614 4179 
L 602 4160 
C 653 3795 666 3355 666 2871 
L 666 1299 
C 666 819 653 364 602 19 
L 608 0 
C 608 0 717 19 941 19 
C 1158 19 1267 0 1267 0 
L 1280 19 
C 1229 384 1216 819 1216 1299 
L 1216 2048 
C 1523 2048 2202 2028 2643 1984 
L 2662 2003 
C 2650 2060 2643 2150 2643 2208 
C 2643 2265 2650 2355 2662 2413 
L 2643 2432 
C 2266 2400 1971 2368 1216 2368 
L 1216 2871 
C 1216 2981 1222 3646 1267 3801 
C 2125 3801 3008 3723 3008 3723 
L 3021 3749 
C 3014 3801 3008 3884 3008 3942 
C 3008 3993 3014 4070 3021 4160 
L 3008 4179 
C 2906 4166 2758 4160 2605 4160 
z
" transform="scale(0.015625)"/>
       <path id="LinBiolinumT-6f" d="M 243 1314 
C 243 544 749 -64 1600 -64 
C 2445 -64 2957 532 2957 1372 
C 2957 2245 2490 2816 1626 2816 
C 787 2816 243 2226 243 1314 
z
M 1581 2559 
C 2259 2559 2394 2033 2394 1257 
C 2394 647 2086 192 1658 192 
C 979 192 806 929 806 1424 
C 806 1982 979 2559 1581 2559 
z
" transform="scale(0.015625)"/>
       <path id="LinBiolinumT-73" d="M 320 647 
L 211 108 
C 576 -20 934 -64 1178 -64 
C 2061 -64 2266 461 2266 814 
C 2266 1340 1850 1546 1395 1655 
C 1153 1712 800 1834 800 2155 
C 800 2418 1011 2559 1286 2559 
C 1619 2559 1824 2296 1971 2123 
L 2061 2129 
L 2189 2604 
L 2176 2623 
C 1990 2719 1638 2816 1312 2816 
C 838 2816 346 2566 346 2033 
C 346 1520 728 1350 1114 1244 
C 1485 1141 1760 1039 1760 724 
C 1760 384 1510 192 1171 192 
C 864 192 595 403 416 654 
L 320 647 
z
" transform="scale(0.015625)"/>
       <path id="LinBiolinumT-76" d="M 1293 0 
C 1357 18 1427 18 1491 18 
C 1555 18 1626 18 1683 0 
C 2016 923 2413 1821 2829 2752 
C 2771 2732 2650 2732 2586 2732 
C 2522 2732 2426 2732 2368 2752 
C 2109 2037 1887 1209 1592 589 
L 1580 589 
C 1260 1313 1051 2026 819 2752 
C 736 2732 589 2732 499 2732 
C 397 2732 230 2732 128 2752 
C 557 1821 934 923 1293 0 
z
" transform="scale(0.015625)"/>
      </defs>
      <use xlink:href="#LinBiolinumT-46" transform="scale(0.996264)"/>
      <use xlink:href="#LinBiolinumT-6f" transform="translate(50.21167 0) scale(0.996264)"/>
      <use xlink:href="#LinBiolinumT-72" transform="translate(100.02487 0) scale(0.996264)"/>
      <use xlink:href="#LinBiolinumT-65" transform="translate(134.595137 0) scale(0.996264)"/>
      <use xlink:href="#LinBiolinumT-73" transform="translate(179.7259 0) scale(0.996264)"/>
      <use xlink:href="#LinBiolinumT-74" transform="translate(219.177945 0) scale(0.996264)"/>
      <use xlink:href="#LinBiolinumT-43" transform="translate(253.050937 0) scale(0.996264)"/>
      <use xlink:href="#LinBiolinumT-6f" transform="translate(320.498007 0) scale(0.996264)"/>
      <use xlink:href="#LinBiolinumT-76" transform="translate(369.613826 0) scale(0.996264)"/>
      <use xlink:href="#LinBiolinumT-65" transform="translate(414.844145 0) scale(0.996264)"/>
      <use xlink:href="#LinBiolinumT-72" transform="translate(459.974908 0) scale(0.996264)"/>
     </g>
    </g>
    <g id="line2d_22">
     <path d="M 314.31639 278.934729 
L 325.31639 278.934729 
L 336.31639 278.934729 
" style="fill: none; stroke: #ababab; stroke-width: 1.5; stroke-linecap: square"/>
    </g>
    <g id="text_20">
     <!-- OnlineNewsPopularity -->
     <g transform="translate(345.11639 282.784729) scale(0.11 -0.11)">
      <defs>
       <path id="LinBiolinumT-4e" d="M 691 4141 
C 749 2926 730 1035 627 19 
L 640 0 
C 717 12 787 19 864 19 
C 941 19 1011 12 1088 0 
L 1101 19 
C 1050 383 1037 818 1037 1297 
L 1037 2824 
C 1037 3214 1050 3233 1286 2926 
L 3520 108 
C 3590 12 3693 -45 3795 -45 
C 3885 -45 3910 31 3917 153 
C 3949 1610 3942 2722 4045 4141 
L 4032 4160 
C 3955 4147 3885 4141 3808 4141 
C 3731 4141 3661 4147 3584 4160 
L 3571 4141 
C 3622 3776 3635 3343 3635 2863 
L 3635 1156 
C 3626 809 3534 957 3258 1316 
L 1062 4153 
C 1062 4153 1002 4141 973 4141 
C 755 4141 704 4160 704 4160 
L 691 4141 
z
" transform="scale(0.015625)"/>
       <path id="LinBiolinumT-77" d="M 1312 -26 
C 1376 -7 1459 -7 1523 -7 
C 1587 -7 1696 -7 1754 -26 
C 1929 467 2115 990 2321 1490 
C 2513 993 2717 477 2899 -20 
C 2963 0 3002 0 3066 0 
C 3130 0 3245 0 3302 -20 
C 3616 735 4128 1956 4493 2752 
C 4435 2732 4282 2732 4218 2732 
C 4154 2732 4058 2732 4000 2752 
C 3763 2001 3475 1186 3212 577 
L 3160 577 
C 2893 1275 2694 2077 2547 2752 
C 2464 2732 2317 2732 2227 2732 
C 2125 2732 1958 2732 1856 2752 
C 1944 2491 2045 2211 2156 1921 
C 1984 1441 1810 964 1624 570 
L 1586 570 
C 1266 1298 1052 2016 819 2745 
C 736 2726 589 2726 499 2726 
C 397 2726 230 2726 128 2745 
C 557 1810 954 906 1312 -26 
z
" transform="scale(0.015625)"/>
       <path id="LinBiolinumT-50" d="M 1216 3663 
C 1216 3851 1331 3948 1792 3948 
C 2234 3948 2701 3825 2701 3053 
C 2701 2307 2342 2067 1722 2067 
C 1562 2067 1299 2086 1216 2132 
L 1216 3663 
z
M 666 2884 
L 666 1303 
C 666 822 653 366 602 19 
L 614 0 
C 691 12 864 19 941 19 
C 1018 19 1190 12 1267 0 
L 1280 19 
C 1229 385 1216 822 1216 1303 
L 1216 1856 
C 1357 1811 1530 1792 1754 1792 
C 2918 1792 3322 2534 3322 3085 
C 3322 3566 3021 4224 1837 4224 
C 1670 4224 1133 4179 941 4179 
C 864 4179 691 4185 614 4198 
L 602 4179 
C 653 3812 666 3371 666 2884 
z
" transform="scale(0.015625)"/>
       <path id="LinBiolinumT-70" d="M 1037 1886 
C 1178 2226 1555 2521 1805 2521 
C 2240 2521 2464 2123 2464 1398 
C 2464 872 2317 192 1632 192 
C 1530 192 1261 217 1037 480 
L 1037 1886 
z
M 1037 2258 
L 1037 2726 
C 1037 2776 1029 2790 998 2790 
C 855 2762 626 2757 480 2771 
L 467 2751 
C 512 2475 525 1989 525 1507 
L 525 -208 
C 525 -695 513 -1165 467 -1517 
L 480 -1536 
C 557 -1523 704 -1517 781 -1517 
C 858 -1517 1005 -1523 1082 -1536 
L 1094 -1517 
C 1048 -1144 1037 -700 1037 -208 
L 1037 76 
C 1203 -13 1440 -64 1670 -64 
C 2515 -64 3027 577 3027 1482 
C 3027 2162 2630 2816 1914 2816 
C 1664 2816 1344 2687 1050 2239 
L 1037 2258 
z
" transform="scale(0.015625)"/>
       <path id="LinBiolinumT-75" d="M 2336 600 
L 2362 582 
L 2394 18 
C 2394 6 2401 0 2419 0 
C 2504 11 2579 18 2673 18 
C 2752 18 2874 12 2957 0 
L 2970 18 
C 2918 291 2861 759 2861 1233 
L 2861 1594 
C 2861 2068 2867 2397 2918 2732 
L 2906 2752 
C 2829 2739 2682 2732 2605 2732 
C 2528 2732 2381 2739 2304 2752 
L 2291 2732 
C 2341 2371 2349 2074 2349 1594 
L 2349 974 
C 2154 635 1786 294 1472 294 
C 1252 294 1043 364 1043 956 
L 1043 1586 
C 1043 2064 1050 2395 1101 2733 
L 1088 2752 
C 1011 2739 864 2733 787 2733 
C 710 2733 563 2739 486 2752 
L 474 2733 
C 525 2370 531 2070 531 1586 
L 531 822 
C 531 383 736 -64 1370 -64 
C 1766 -64 2125 262 2336 587 
L 2336 600 
z
" transform="scale(0.015625)"/>
      </defs>
      <use xlink:href="#LinBiolinumT-4f" transform="scale(0.996264)"/>
      <use xlink:href="#LinBiolinumT-6e" transform="translate(73.823169 0) scale(0.996264)"/>
      <use xlink:href="#LinBiolinumT-6c" transform="translate(127.521748 0) scale(0.996264)"/>
      <use xlink:href="#LinBiolinumT-69" transform="translate(152.627582 0) scale(0.996264)"/>
      <use xlink:href="#LinBiolinumT-6e" transform="translate(178.530462 0) scale(0.996264)"/>
      <use xlink:href="#LinBiolinumT-65" transform="translate(232.22904 0) scale(0.996264)"/>
      <use xlink:href="#LinBiolinumT-4e" transform="translate(277.359803 0) scale(0.996264)"/>
      <use xlink:href="#LinBiolinumT-65" transform="translate(348.891592 0) scale(0.996264)"/>
      <use xlink:href="#LinBiolinumT-77" transform="translate(393.324973 0) scale(0.996264)"/>
      <use xlink:href="#LinBiolinumT-73" transform="translate(465.255247 0) scale(0.996264)"/>
      <use xlink:href="#LinBiolinumT-50" transform="translate(504.707293 0) scale(0.996264)"/>
      <use xlink:href="#LinBiolinumT-6f" transform="translate(560.398445 0) scale(0.996264)"/>
      <use xlink:href="#LinBiolinumT-70" transform="translate(610.211645 0) scale(0.996264)"/>
      <use xlink:href="#LinBiolinumT-75" transform="translate(662.316226 0) scale(0.996264)"/>
      <use xlink:href="#LinBiolinumT-6c" transform="translate(715.81557 0) scale(0.996264)"/>
      <use xlink:href="#LinBiolinumT-61" transform="translate(740.921404 0) scale(0.996264)"/>
      <use xlink:href="#LinBiolinumT-72" transform="translate(788.841694 0) scale(0.996264)"/>
      <use xlink:href="#LinBiolinumT-69" transform="translate(824.209021 0) scale(0.996264)"/>
      <use xlink:href="#LinBiolinumT-74" transform="translate(850.1119 0) scale(0.996264)"/>
      <use xlink:href="#LinBiolinumT-79" transform="translate(883.984892 0) scale(0.996264)"/>
     </g>
    </g>
    <g id="line2d_23">
     <path d="M 314.31639 294.721023 
L 325.31639 294.721023 
L 336.31639 294.721023 
" style="fill: none; stroke: #595959; stroke-width: 1.5; stroke-linecap: square"/>
    </g>
    <g id="text_21">
     <!-- WineQuality -->
     <g transform="translate(345.11639 298.571023) scale(0.11 -0.11)">
      <defs>
       <path id="LinBiolinumT-57" d="M 4122 847 
L 4109 847 
C 3450 2792 3168 3755 3078 4160 
C 2970 4141 2835 4141 2726 4141 
C 2618 4141 2451 4141 2342 4160 
C 2456 3879 2659 3343 2895 2709 
C 2633 2062 2330 1370 2080 789 
L 2067 789 
C 1203 2786 870 3935 806 4160 
C 698 4141 595 4141 486 4141 
C 378 4141 211 4141 102 4160 
C 422 3511 1267 1341 1856 -64 
L 2035 -64 
L 3063 2257 
C 3347 1485 3657 633 3904 -64 
L 4083 -64 
C 4698 1361 5325 2741 5971 4160 
C 5894 4141 5818 4141 5747 4141 
C 5677 4141 5504 4141 5427 4160 
C 5210 3332 4582 1913 4122 847 
L 4122 847 
z
" transform="scale(0.015625)"/>
       <path id="LinBiolinumT-83" d="M 2272 3941 
C 3174 3941 3750 3317 3750 1980 
C 3750 839 3219 221 2490 221 
C 1722 221 992 864 992 2088 
C 992 3440 1658 3941 2272 3941 
z
M 6982 590 
L 7008 571 
L 7040 4 
C 7040 -9 7048 -15 7066 -15 
C 7150 -4 7226 4 7319 4 
C 7398 4 7520 -2 7603 -15 
L 7616 4 
C 7565 278 7507 750 7507 1228 
L 7507 1591 
C 7507 2069 7514 2400 7565 2739 
L 7552 2758 
C 7475 2745 7328 2739 7251 2739 
C 7174 2739 7027 2745 6950 2758 
L 6938 2739 
C 6988 2373 6995 2075 6995 1591 
L 6995 966 
C 6801 639 6432 297 6118 297 
C 5898 297 5690 367 5690 960 
L 5690 1591 
C 5690 2069 5696 2400 5747 2739 
L 5734 2758 
C 5658 2745 5510 2739 5434 2739 
C 5357 2739 5210 2745 5133 2758 
L 5120 2739 
C 5171 2375 5178 2075 5178 1591 
L 5178 826 
C 5178 383 5382 -64 6016 -64 
C 6413 -64 6771 262 6982 587 
L 6982 590 
z
M 3423 206 
C 4037 562 4410 1242 4410 2100 
C 4410 3375 3507 4224 2355 4224 
C 1210 4224 333 3239 333 1979 
C 333 721 1261 -64 2362 -64 
C 2548 -64 2726 -44 2894 -3 
C 3703 -507 4436 -840 5574 -1178 
C 5696 -1079 5946 -919 6176 -787 
L 6176 -745 
C 5012 -594 3986 -154 3423 206 
z
" transform="scale(0.015625)"/>
      </defs>
      <use xlink:href="#LinBiolinumT-57" transform="scale(0.996264)"/>
      <use xlink:href="#LinBiolinumT-69" transform="translate(94.744729 0) scale(0.996264)"/>
      <use xlink:href="#LinBiolinumT-6e" transform="translate(120.647608 0) scale(0.996264)"/>
      <use xlink:href="#LinBiolinumT-65" transform="translate(174.346187 0) scale(0.996264)"/>
      <use xlink:href="#LinBiolinumT-83" transform="translate(219.476949 0) scale(0.996264)"/>
      <use xlink:href="#LinBiolinumT-61" transform="translate(343.711038 0) scale(0.996264)"/>
      <use xlink:href="#LinBiolinumT-6c" transform="translate(391.631328 0) scale(0.996264)"/>
      <use xlink:href="#LinBiolinumT-69" transform="translate(416.737162 0) scale(0.996264)"/>
      <use xlink:href="#LinBiolinumT-74" transform="translate(442.640042 0) scale(0.996264)"/>
      <use xlink:href="#LinBiolinumT-79" transform="translate(476.513033 0) scale(0.996264)"/>
     </g>
    </g>
   </g>
  </g>
 </g>
 <defs>
  <clipPath id="p2a5300ca05">
   <rect x="40.709863" y="3.00024" width="417.089897" height="308.057078"/>
  </clipPath>
 </defs>
</svg>
